<svg xmlns="http://www.w3.org/2000/svg" viewBox="0 0 810.9 227.79"><defs><style>.cls-1{fill:#017c66;}.cls-2{fill:#55b050;}.cls-10,.cls-3,.cls-4,.cls-5,.cls-6,.cls-7,.cls-8,.cls-9{fill:none;stroke:#017c66;stroke-miterlimit:10;}.cls-3{stroke-width:4.85px;}.cls-4{stroke-width:4.19px;}.cls-5{stroke-width:3.53px;}.cls-6{stroke-width:2.87px;}.cls-7{stroke-width:2.22px;}.cls-8{stroke-width:1.56px;}.cls-9{stroke-width:0.9px;}.cls-10{stroke-width:0.24px;}.cls-11{fill:#d1dcf0;}.cls-12{fill:#8d94c9;}.cls-13{fill:#525681;}</style></defs><g id="Camada_2" data-name="Camada 2"><g id="Camada_1-2" data-name="Camada 1"><path class="cls-1" d="M475.86,92.8H444.65V107h30.58v21.51H444.65v29.84H422.39v-87h53.47Z"/><path class="cls-1" d="M537.24,158.32l-4.17-12.56H503.45l-3.76,12.56H475.61l27.73-87h28l28.79,87Zm-28.06-31.71h17.53L517.88,97Z"/><path class="cls-1" d="M588.75,137.43h33.69v20.89h-56v-87h55.33V92.05H588.75v12.06h30v20.52h-30Z"/><path class="cls-1" d="M655.26,136.81h30v21.51H633v-87h22.25Z"/><path class="cls-1" d="M254.46,129.22V71.28h6.59v57.94c0,14.17,8.82,24.12,25.24,24.12s25.36-10,25.36-24.12V71.28h6.59v57.94c0,18.4-12.81,30.46-31.95,30.46S254.46,147.62,254.46,129.22Z"/><path class="cls-1" d="M393.09,71.28v87h-5.85L335.89,83.47v74.85H329.3v-87H335l51.48,74.85V71.28Z"/><path class="cls-1" d="M412,71.28v87H405.4v-87Z"/><path class="cls-1" d="M268.53,186.14a8.64,8.64,0,0,1-3.56.64c-3.81,0-6.67-2.4-6.67-6.83a6.71,6.71,0,0,1,7.05-7.09,7.23,7.23,0,0,1,3.2.6l-.42,1.42a6.34,6.34,0,0,0-2.72-.56c-3.17,0-5.27,2-5.27,5.57,0,3.31,1.9,5.43,5.19,5.43a7,7,0,0,0,2.84-.56Z"/><path class="cls-1" d="M289.72,180.25h-5.25v4.87h5.85v1.46h-7.59v-13.5H290v1.46h-5.55v4.27h5.25Z"/><path class="cls-1" d="M304.6,186.58v-13.5h1.9l4.33,6.83a38.23,38.23,0,0,1,2.42,4.39l0,0c-.16-1.8-.2-3.45-.2-5.55v-5.65h1.64v13.5H313l-4.29-6.85a41.92,41.92,0,0,1-2.52-4.51l-.06,0c.1,1.71.14,3.33.14,5.57v5.77Z"/><path class="cls-1" d="M332.35,174.56h-4.1v-1.48h10v1.48h-4.12v12h-1.77Z"/><path class="cls-1" d="M351.76,173.26a18.12,18.12,0,0,1,3.34-.28,5.52,5.52,0,0,1,3.91,1.1,3.36,3.36,0,0,1,1.06,2.57,3.54,3.54,0,0,1-2.54,3.44v.06a3.36,3.36,0,0,1,2,2.73,21.45,21.45,0,0,0,1,3.7h-1.8a17.46,17.46,0,0,1-.9-3.22c-.4-1.87-1.12-2.57-2.71-2.63H353.5v5.85h-1.74Zm1.74,6.15h1.78c1.87,0,3.05-1,3.05-2.56,0-1.75-1.26-2.51-3.11-2.53a7.16,7.16,0,0,0-1.72.16Z"/><path class="cls-1" d="M386.15,179.69c0,4.65-2.83,7.11-6.27,7.11s-6.07-2.76-6.07-6.85c0-4.29,2.66-7.09,6.27-7.09S386.15,175.69,386.15,179.69Zm-10.48.22c0,2.89,1.56,5.47,4.31,5.47s4.32-2.54,4.32-5.61c0-2.68-1.4-5.49-4.3-5.49S375.67,177,375.67,179.91Z"/><path class="cls-1" d="M418.43,173.08v8c0,3,1.34,4.31,3.14,4.31,2,0,3.29-1.32,3.29-4.31v-8h1.76V181c0,4.15-2.18,5.85-5.11,5.85-2.76,0-4.85-1.58-4.85-5.77v-7.95Z"/><path class="cls-1" d="M441.66,186.58v-13.5h1.9l4.33,6.83a38.23,38.23,0,0,1,2.42,4.39l0,0c-.16-1.8-.2-3.45-.2-5.55v-5.65h1.64v13.5H450l-4.29-6.85a41.92,41.92,0,0,1-2.52-4.51l-.06,0c.1,1.71.14,3.33.14,5.57v5.77Z"/><path class="cls-1" d="M468.59,173.08v13.5h-1.74v-13.5Z"/><path class="cls-1" d="M486.62,186.58l-4.41-13.5h1.88l2.11,6.65c.58,1.82,1.08,3.47,1.44,5.05h0c.38-1.56.94-3.27,1.54-5l2.28-6.67h1.87l-4.83,13.5Z"/><path class="cls-1" d="M513.83,180.25h-5.24v4.87h5.84v1.46h-7.59v-13.5h7.29v1.46h-5.54v4.27h5.24Z"/><path class="cls-1" d="M528.71,173.26a18.16,18.16,0,0,1,3.35-.28,5.51,5.51,0,0,1,3.9,1.1,3.36,3.36,0,0,1,1.06,2.57,3.54,3.54,0,0,1-2.54,3.44v.06a3.36,3.36,0,0,1,2,2.73,21.45,21.45,0,0,0,1,3.7h-1.8a17.46,17.46,0,0,1-.9-3.22c-.4-1.87-1.12-2.57-2.7-2.63h-1.65v5.85h-1.74Zm1.74,6.15h1.79c1.86,0,3-1,3-2.56,0-1.75-1.26-2.51-3.1-2.53a7.26,7.26,0,0,0-1.73.16Z"/><path class="cls-1" d="M551.26,184.46a6.17,6.17,0,0,0,3.13.88c1.78,0,2.82-.94,2.82-2.3s-.72-2-2.54-2.69c-2.21-.78-3.57-1.92-3.57-3.82,0-2.11,1.74-3.67,4.37-3.67a6.12,6.12,0,0,1,3,.66l-.48,1.42a5.37,5.37,0,0,0-2.56-.64c-1.84,0-2.55,1.1-2.55,2,0,1.26.83,1.88,2.69,2.6,2.28.88,3.44,2,3.44,4s-1.54,3.88-4.72,3.88a7,7,0,0,1-3.45-.86Z"/><path class="cls-1" d="M575.13,173.08v13.5h-1.74v-13.5Z"/><path class="cls-1" d="M592.76,174.56h-4.11v-1.48h10v1.48h-4.13v12h-1.76Z"/><path class="cls-1" d="M612.84,182.34l-1.4,4.24h-1.8l4.59-13.5h2.1l4.61,13.5h-1.87l-1.44-4.24Zm4.43-1.37L616,177.09c-.3-.88-.5-1.69-.7-2.47h0c-.2.8-.42,1.63-.68,2.45L613.2,181Zm1-10.95-2.54,2.34h-1.45l1.87-2.34Z"/><path class="cls-1" d="M634.93,173.26a18.24,18.24,0,0,1,3.35-.28,5.51,5.51,0,0,1,3.9,1.1,3.36,3.36,0,0,1,1.06,2.57,3.54,3.54,0,0,1-2.54,3.44v.06a3.36,3.36,0,0,1,2,2.73,20.27,20.27,0,0,0,1.05,3.7h-1.81a17.46,17.46,0,0,1-.9-3.22c-.4-1.87-1.12-2.57-2.7-2.63h-1.65v5.85h-1.74Zm1.74,6.15h1.79c1.86,0,3-1,3-2.56,0-1.75-1.26-2.51-3.1-2.53a7.26,7.26,0,0,0-1.73.16Z"/><path class="cls-1" d="M659.46,173.08v13.5h-1.74v-13.5Z"/><path class="cls-1" d="M686.06,179.69c0,4.65-2.82,7.11-6.27,7.11s-6.07-2.76-6.07-6.85c0-4.29,2.67-7.09,6.27-7.09S686.06,175.69,686.06,179.69Zm-10.47.22c0,2.89,1.56,5.47,4.3,5.47s4.33-2.54,4.33-5.61c0-2.68-1.4-5.49-4.31-5.49S675.59,177,675.59,179.91Z"/><path class="cls-2" d="M113.9,0A113.9,113.9,0,1,0,227.79,113.9,113.89,113.89,0,0,0,113.9,0Zm31,178.16c-34.83,0-63.07-27.85-63.07-62.22s28.24-62.21,63.07-62.21S208,81.58,208,115.94,179.73,178.16,144.89,178.16Z"/><path class="cls-1" d="M144.89,183.07c-37.52,0-68-30.13-68-67.16s30.52-67.17,68-67.17,68.05,30.13,68.05,67.17S182.42,183.07,144.89,183.07Zm0-127.46c-33.73,0-61.17,27.05-61.17,60.3s27.44,60.3,61.17,60.3,61.18-27.05,61.18-60.3S178.63,55.61,144.89,55.61Z"/><path class="cls-1" d="M141.49,188.66c-40.65,0-73.73-32.64-73.73-72.75s33.08-72.76,73.73-72.76,73.72,32.64,73.72,72.76S182.14,188.66,141.49,188.66Zm0-141c-38.18,0-69.23,30.62-69.23,68.26s31.05,68.25,69.23,68.25,69.23-30.62,69.23-68.25S179.66,47.65,141.49,47.65Z"/><ellipse class="cls-3" cx="138.4" cy="115.91" rx="76.57" ry="75.53"/><ellipse class="cls-3" cx="138.4" cy="115.91" rx="76.57" ry="75.53"/><ellipse class="cls-3" cx="138.4" cy="115.91" rx="76.57" ry="75.53"/><ellipse class="cls-3" cx="138.4" cy="115.91" rx="76.57" ry="75.53"/><ellipse class="cls-3" cx="138.4" cy="115.91" rx="76.57" ry="75.53"/><ellipse class="cls-3" cx="138.4" cy="115.91" rx="76.57" ry="75.53"/><ellipse class="cls-3" cx="138.4" cy="115.91" rx="76.57" ry="75.53"/><ellipse class="cls-3" cx="138.4" cy="115.91" rx="76.57" ry="75.53"/><ellipse class="cls-4" cx="134.64" cy="115.62" rx="80.56" ry="79.88"/><ellipse class="cls-5" cx="130.87" cy="115.33" rx="84.55" ry="84.22"/><ellipse class="cls-6" cx="127.11" cy="115.05" rx="88.54" ry="88.57"/><ellipse class="cls-7" cx="123.34" cy="114.76" rx="92.52" ry="92.92"/><ellipse class="cls-8" cx="119.58" cy="114.47" rx="96.51" ry="97.26"/><ellipse class="cls-9" cx="115.81" cy="114.18" rx="100.5" ry="101.61"/><ellipse class="cls-10" cx="112.05" cy="113.9" rx="104.49" ry="105.96"/><path class="cls-11" d="M770.75,73.29a2.66,2.66,0,0,0-.35,2.86c1.61-.91,3.28-2,4.79-2.71-1.84-.89-3.45-1.25-4.44-.15M796,82.54c-2.07-3.61,4.87-14.86,1.06-16.55s-7.61,11-11.68,11.88c-1.45.31-3.37-.57-5.36-1.7-.73,2-2.84,4.34-4.82,6.37,1.21,1.25,2.38,2.39,3.15,3.28a32.59,32.59,0,0,1,3.75,4.75,32.52,32.52,0,0,1,2.24,5.62c.38,1.12.79,2.72,1.27,4.4.78,2.75,1.75,5.74,3.13,7.34a2.66,2.66,0,0,0,2.65,1.12c1.44-.31,1.93-1.87,2.09-3.91.13-1.67,0-3.65,0-5.52,0-2.31.21-4.43,1.21-5.54,2.79-3.09,15.7,0,16.13-4.17S798.11,86.15,796,82.54"/><path class="cls-12" d="M759,109a2.68,2.68,0,0,0,2.63-1.09c-1.59-.93-3.34-1.83-4.71-2.77.16,2,.65,3.55,2.08,3.86m20.65-35.77c-1-1.11-2.63-.73-4.5.18-1.51.73-3.18,1.8-4.79,2.71-2,1.12-3.9,2-5.35,1.7C761,77,757.17,64.26,753.37,66s3.13,12.94,1,16.56-15.3,3.22-14.86,7.36S752.91,91,755.7,94.06c1,1.11,1.18,3.24,1.2,5.55,2.09-.36,5.16.3,7.91,1,.49-1.7.89-3.3,1.28-4.43a32.36,32.36,0,0,1,2.24-5.63,33.14,33.14,0,0,1,3.75-4.75c.77-.88,1.93-2,3.13-3.25,2-2,4.09-4.37,4.82-6.37a2.7,2.7,0,0,0-.34-2.91"/><path class="cls-13" d="M784.56,111.75c.46-1.42,2.2-2.64,4.19-3.81-1.38-1.61-2.35-4.6-3.13-7.35-1.7.43-3.27.87-4.43,1.1a21.06,21.06,0,0,1-12,0c-1.15-.23-2.71-.67-4.4-1.09-2.75-.7-5.82-1.36-7.91-1a2.69,2.69,0,0,0-2.35,1.75c-.46,1.41.69,2.64,2.41,3.8,1.37.94,3.12,1.84,4.7,2.77,2,1.17,3.72,2.4,4.18,3.81,1.29,4-7.82,13.61-4.45,16.06s9.64-9.18,13.81-9.2,10.44,11.65,13.81,9.2-5.74-12.1-4.45-16.06m-9.33-11.19a6,6,0,1,0-6-6,6,6,0,0,0,6,6m20.62.81a2.69,2.69,0,0,0-2.31-1.75c0,1.87.08,3.85,0,5.52,1.69-1.15,2.81-2.37,2.36-3.77"/><path class="cls-13" d="M753.7,153.46c-3.83-1.42-5.26-2.38-5.26-4.38s1.49-3.28,4.21-3.28a11.73,11.73,0,0,1,2.56.3c.44.14.88.28,1.32.44a22.63,22.63,0,0,1,2.47,1.12.88.88,0,0,0,1.33-.48l1.28-3.6c.19-.73,0-.91-.75-1.36l-.36-.2v0a13.26,13.26,0,0,0-1.79-.79,21.81,21.81,0,0,0-2.61-.73,17.62,17.62,0,0,0-3.58-.34c-7,0-11.38,4.31-11.38,9.84-.06,3.67,2.41,7,8.29,9.14,3.71,1.35,4.94,2.45,4.94,4.57s-1.48,3.48-4.82,3.48a13.51,13.51,0,0,1-3-.38c-.62-.17-1.21-.43-1.82-.66a23.23,23.23,0,0,1-2.56-1.16.92.92,0,0,0-1.38.5l-1.33,3.73c-.18.75,0,1,.79,1.41l.06,0,.06,0a20.63,20.63,0,0,0,4.8,1.75,20.28,20.28,0,0,0,4.29.47c8,0,12.24-4.19,12.24-9.85-.06-4.63-2.6-7.53-8-9.59m57-8.65v-3.18c0-.94-.58-1.18-1.46-1.18-6,0-9.73,1.38-12.09,4.43-1.82,2.34-2.14,5-2.14,10.56V170.8c.08,1.09.52,1.61,1.54,1.61h4.78c1.11,0,1.56-.58,1.56-1.61V155.15c0-3.53,0-5.49,1.28-6.83,1.07-1.14,2.5-1.89,5.5-1.89.71,0,1-.52,1-1.62m-25.57,8.78H770.71a9.73,9.73,0,0,1,.92-3,7.41,7.41,0,0,1,6.78-4.26c4.18,0,6.73,2.84,6.73,7.05Zm3-9.76a14.49,14.49,0,0,0-10-3.41,16,16,0,0,0-9.74,3.38,16.4,16.4,0,0,0-6,13c0,5.05,1.64,9.12,4.59,11.87s7,4.17,12,4.17A25,25,0,0,0,790.16,170c.74-.46,1-.65.79-1.41l-1.33-3.73a.92.92,0,0,0-1.38-.5,23.23,23.23,0,0,1-2.56,1.16,16.16,16.16,0,0,1-5.52,1.14c-3.79,0-5.94-1-7.59-2.93a8,8,0,0,1-1.85-4.51h20.9c.77,0,1.11-.52,1.11-1.41v-1.5c0-.74,0-1.89-.1-2.58-.38-4.22-1.93-7.6-4.52-9.89"/><path class="cls-12" d="M744.5,183.61c0-2-.32-3.13-2-3.13s-2,1.17-2,3.13Zm-4,.85v.68c0,1.22.33,2.85,2,2.85a1.81,1.81,0,0,0,1.94-2h1.11c-.13,2.14-1.28,2.87-3,2.87-1.52,0-3-.61-3-3.29v-2.17c0-2.56,1.07-3.73,3-3.73,3,0,3,2.19,3,4.82Z"/><path class="cls-12" d="M752,185v-1.57c0-.53,0-3-2-3s-1.89,1.72-1.89,3.78c0,3.29.78,3.73,1.92,3.73s2-.81,2-3m0,2.51h0a2.43,2.43,0,0,1-2.24,1.28c-2.55,0-2.7-2.53-2.7-4.6,0-1.7,0-4.59,2.72-4.59a2.75,2.75,0,0,1,2.14,1.05l0,0V176h1v10.89a11.44,11.44,0,0,0,.1,1.74h-1Z"/><path class="cls-12" d="M760.43,179.82v8.84h-.91v-1h0a2.65,2.65,0,0,1-2.22,1.15c-1.82,0-2.33-1.33-2.33-2.76v-6.25H756v6.07c0,.25-.05,2.1,1.47,2.1a2,2,0,0,0,1.92-1.94v-6.23Z"/><path class="cls-12" d="M766.44,182.35c.06-1.1-.34-1.87-1.55-1.87a1.46,1.46,0,0,0-1.42,1,12,12,0,0,0-.25,2.78c0,1.59,0,3.71,1.63,3.71,1.39,0,1.56-.87,1.61-1.94h1c.09,2.38-1.59,2.78-2.41,2.78-3,0-3-2.36-3-4.55a11.56,11.56,0,0,1,.27-2.92,2.55,2.55,0,0,1,2.66-1.72,2.3,2.3,0,0,1,2.47,2.71Z"/><path class="cls-12" d="M773.84,184.14c-1.51.05-3.78-.12-3.78,2,0,1,.5,1.82,1.59,1.82a2.28,2.28,0,0,0,2.19-2.24Zm.07,3.43h0a2.84,2.84,0,0,1-2.5,1.26,2.34,2.34,0,0,1-2.44-2.61c0-3.09,3.12-2.78,4.91-2.92v-.73c0-1.3-.39-2.09-1.79-2.09-1,0-1.73.48-1.73,1.52H769.2c.09-1.69,1.4-2.36,2.94-2.36.89,0,2.74.09,2.74,2.35v4.45a17.9,17.9,0,0,0,.11,2.21h-1.08Z"/><path class="cls-12" d="M780.86,182.35c0-1.1-.35-1.87-1.56-1.87a1.46,1.46,0,0,0-1.42,1,12.75,12.75,0,0,0-.24,2.78c0,1.59,0,3.71,1.63,3.71,1.38,0,1.56-.87,1.61-1.94h1c.09,2.38-1.59,2.78-2.42,2.78-3,0-3-2.36-3-4.55a11.58,11.58,0,0,1,.26-2.92,2.56,2.56,0,0,1,2.66-1.72,2.29,2.29,0,0,1,2.47,2.71Z"/><path class="cls-12" d="M783.71,180h1.06v8.84h-1.06Zm-.12-3.79h1.3v1.33h-1.3Z"/><path class="cls-12" d="M791.44,186.82a11.93,11.93,0,0,0,.21-2.59c0-2.61-.26-3.75-2-3.75s-2,1.14-2,3.75a12.59,12.59,0,0,0,.21,2.59,1.95,1.95,0,0,0,3.57,0m-4.83-1.63v-2.1c0-1.12,0-3.45,3-3.45s3.05,2.33,3.05,3.45v2.1c0,2.29-.79,3.64-3.05,3.64s-3-1.35-3-3.64"/><path class="cls-12" d="M795.49,188.65h-1v-8.83h1v1.08h0a2.56,2.56,0,0,1,2.13-1.26c2.19,0,2.42,1.63,2.42,2.78v6.23H799v-6.17c0-1-.41-2-1.63-2-.95,0-1.91.65-1.91,2.63Z"/><path class="cls-12" d="M806.56,184.14c-1.51.05-3.78-.12-3.78,2,0,1,.51,1.82,1.59,1.82a2.27,2.27,0,0,0,2.19-2.24Zm.07,3.43h0a2.84,2.84,0,0,1-2.5,1.26,2.34,2.34,0,0,1-2.44-2.61c0-3.09,3.12-2.78,4.9-2.92v-.73c0-1.3-.38-2.09-1.78-2.09-1,0-1.74.48-1.74,1.52h-1.12c.09-1.69,1.41-2.36,2.94-2.36.9,0,2.75.09,2.75,2.35v4.45a17.9,17.9,0,0,0,.11,2.21h-1.09Z"/><rect class="cls-12" x="809.72" y="176.2" width="1.05" height="12.63"/><path class="cls-12" d="M719.82,127.33c0,34-1,61.5-2.12,61.5s-2.14-27.53-2.14-61.5,1-61.5,2.14-61.5,2.12,27.53,2.12,61.5"/></g></g></svg>